<svg id="Capa_1" data-name="Capa 1" xmlns="http://www.w3.org/2000/svg" viewBox="0 0 92 88.23"><defs><style>.cls-1,.cls-2{fill:none;stroke-miterlimit:10;stroke-width:3px;}.cls-1{stroke:#3c3c3c;}.cls-2{stroke:#2d9c89;}</style></defs><title>icons-design</title><path class="cls-1" d="M45.75,17.48v-.23l-.07.11-.07-.11v.23c-1.34,2.3-17.33,29.86-21.31,37.31,6.35,6.45,10,17.59,10,17.59H57.08S60.33,62,67.07,54.8C63.08,47.34,47.09,19.79,45.75,17.48Zm0,37.33.7,0-.77,0h-.07c-.66,0-5.29-.62-5.29-5a5.28,5.28,0,0,1,5.29-4.35h.13c.64,0,5.29.22,5.29,4.35C51,54.77,46.41,54.83,45.75,54.81Z"/><polyline class="cls-1" points="45.62 45.43 45.62 16.86 45.69 10.6"/><line class="cls-1" x1="23.08" y1="10.6" x2="69.83" y2="10.6"/><rect class="cls-2" x="11.92" y="5.02" width="11.16" height="11.16"/><rect class="cls-2" x="68.92" y="5.02" width="11.16" height="11.16"/><rect class="cls-1" x="30.26" y="72.39" width="31.3" height="10.82" rx="0.19" ry="0.19"/></svg>