<svg id="Capa_1" data-name="Capa 1" xmlns="http://www.w3.org/2000/svg" viewBox="0 0 92 88.23"><defs><style>.cls-1,.cls-2,.cls-3,.cls-4{fill:none;stroke-width:3px;}.cls-1{stroke:#2d9c89;}.cls-1,.cls-2,.cls-4{stroke-linecap:round;}.cls-1,.cls-2{stroke-linejoin:round;}.cls-2,.cls-3,.cls-4{stroke:#3c3c3c;}.cls-3,.cls-4{stroke-miterlimit:10;}</style></defs><title>icons-list</title><line class="cls-1" x1="60.48" y1="32.73" x2="42.34" y2="32.73"/><line class="cls-2" x1="60.48" y1="45.34" x2="42.34" y2="45.34"/><line class="cls-1" x1="60.48" y1="57.69" x2="42.34" y2="57.69"/><line class="cls-2" x1="60.48" y1="70.13" x2="42.34" y2="70.13"/><polyline class="cls-1" points="27.31 32.73 30.08 34.97 35.87 30.14"/><polyline class="cls-2" points="27.31 45.51 30.08 47.76 35.87 42.92"/><polyline class="cls-1" points="27.31 57.86 30.08 60.11 35.87 55.27"/><polyline class="cls-2" points="27.31 70.3 30.08 72.55 35.87 67.71"/><path class="cls-2" d="M62.16,14.3V11.48s-.39-2.54-4-2.54H52.73L50.39,6.66a2.9,2.9,0,1,0-5.79,0L42.26,8.94H36.8c-3.58,0-4,2.54-4,2.54V14.3h-22V84.56H81.13V14.3Z"/><line class="cls-3" x1="62.16" y1="18.95" x2="32.82" y2="18.97"/><line class="cls-4" x1="62.16" y1="14.26" x2="62.16" y2="18.95"/><line class="cls-4" x1="32.83" y1="14.3" x2="32.82" y2="18.97"/><circle class="cls-3" cx="47.82" cy="12.71" r="0.49"/></svg>